<?xml version="1.0" encoding="utf-8"?>
<!-- Generator: Adobe Illustrator 19.1.0, SVG Export Plug-In . SVG Version: 6.00 Build 0)  -->
<svg version="1.1" id="Layer_1" xmlns="http://www.w3.org/2000/svg" xmlns:xlink="http://www.w3.org/1999/xlink" x="0px" y="0px"
	 viewBox="0 0 62 62" style="enable-background:new 0 0 62 62;" xml:space="preserve">
<style type="text/css">
	.st0{fill:none;stroke:#FF4F5B;stroke-width:2;stroke-linecap:round;stroke-linejoin:round;stroke-miterlimit:10;}
</style>
<g>
	<path class="st0" d="M38.7,52.2L4.3,40C2.7,39.4,1,40.6,1,42.3v3.5c0,1.1,0.7,2,1.7,2.4L38.7,61"/>
	<path class="st0" d="M38.7,43.4L4.3,31.1C2.7,30.6,1,31.8,1,33.5V37c0,1.1,0.7,2,1.7,2.4l36.1,12.8"/>
	<path class="st0" d="M61,45.5l-20.5,6.2c-1.1,0.3-1.8,1.3-1.8,2.4v3.6c0,1.7,1.6,2.9,3.2,2.4L61,54.3"/>
	<line class="st0" x1="49" y1="36.7" x2="40.8" y2="39.2"/>
	<line class="st0" x1="44.9" y1="34.4" x2="38.2" y2="36.4"/>
	<path class="st0" d="M61,45.5L42,51.2c-1.6,0.5-3.2-0.7-3.2-2.4v-3.6c0-1.1,0.7-2.1,1.8-2.4L61,36.7l-18.4-6.5"/>
	<line class="st0" x1="19.9" y1="26" x2="3.4" y2="31"/>
	<g>
		<path class="st0" d="M36.1,32.5H25.9c-1.4,0-2.5-1.1-2.5-2.5V29c0-1.4,1.1-2.5,2.5-2.5h10.1c1.4,0,2.5,1.1,2.5,2.5V30
			C38.6,31.4,37.4,32.5,36.1,32.5z"/>
		<path class="st0" d="M25.7,32.9c1,1.9,3,3.1,5.3,3.1c2.3,0,4.3-1.3,5.3-3.1"/>
		<path class="st0" d="M26.4,2c1.4-0.6,2.9-1,4.6-1c6.2,0,11.2,5,11.2,11.2c0,7.1-6.7,10.3-6.7,14.2"/>
		<path class="st0" d="M21,7.1c-0.8,1.5-1.2,3.2-1.2,5.1c0,7.1,6.7,10.3,6.7,14.2"/>
		<path class="st0" d="M23.7,3.7c-0.3,0.3-0.7,0.6-0.9,0.9"/>
		<polyline class="st0" points="30.1,19.1 34.7,13.3 27.3,13.3 32,7.4 		"/>
	</g>
	<line class="st0" x1="17.8" y1="6.3" x2="13.2" y2="4.4"/>
	<line class="st0" x1="16.7" y1="11.8" x2="11.7" y2="11.8"/>
	<line class="st0" x1="17.8" y1="17.3" x2="13.2" y2="19.2"/>
	<line class="st0" x1="44.3" y1="17.3" x2="48.9" y2="19.2"/>
	<line class="st0" x1="45.4" y1="11.8" x2="50.4" y2="11.8"/>
	<line class="st0" x1="44.3" y1="6.3" x2="48.9" y2="4.4"/>
</g>
</svg>
